<mxfile host="app.diagrams.net" agent="Mozilla/5.0 (Windows NT 10.0; Win64; x64) AppleWebKit/537.36 (KHTML, like Gecko) Chrome/128.0.0.0 Safari/537.36" version="24.7.14">
  <diagram id="nIOchykhQJx9Utzf3ZG-" name="Pagina-1">
    <mxGraphModel dx="607" dy="1915" grid="1" gridSize="10" guides="1" tooltips="1" connect="1" arrows="1" fold="1" page="1" pageScale="1" pageWidth="827" pageHeight="1169" math="0" shadow="0">
      <root>
        <mxCell id="0" />
        <mxCell id="1" parent="0" />
        <mxCell id="asZRCC7Di8N7Mpjf7xmQ-32" value="" style="verticalLabelPosition=bottom;verticalAlign=top;html=1;shape=mxgraph.basic.rect;fillColor2=none;strokeWidth=1;size=20;indent=5;strokeColor=default;align=center;fontFamily=Architects Daughter;fontSource=https%3A%2F%2Ffonts.googleapis.com%2Fcss%3Ffamily%3DArchitects%2BDaughter;fontSize=15;fontColor=default;labelBackgroundColor=default;fillColor=default;" parent="1" vertex="1">
          <mxGeometry x="870" y="-1010" width="920" height="780" as="geometry" />
        </mxCell>
        <mxCell id="8L5EdlblgQnNJxjFwJ6V-32" value="" style="group" vertex="1" connectable="0" parent="1">
          <mxGeometry x="1010" y="-990" width="460" height="600" as="geometry" />
        </mxCell>
        <mxCell id="asZRCC7Di8N7Mpjf7xmQ-7" value="" style="rounded=1;whiteSpace=wrap;html=1;fontSize=25;arcSize=6;sketch=1;fontFamily=Architects Daughter;fontSource=https%3A%2F%2Ffonts.googleapis.com%2Fcss%3Ffamily%3DArchitects%2BDaughter;" parent="8L5EdlblgQnNJxjFwJ6V-32" vertex="1">
          <mxGeometry width="460" height="600" as="geometry" />
        </mxCell>
        <mxCell id="asZRCC7Di8N7Mpjf7xmQ-8" value="&lt;font face=&quot;Architects Daughter&quot; style=&quot;font-size: 14px;&quot;&gt;core-vnet&lt;/font&gt;" style="image;aspect=fixed;html=1;points=[];align=left;fontSize=12;image=img/lib/azure2/networking/Virtual_Networks.svg;" parent="8L5EdlblgQnNJxjFwJ6V-32" vertex="1">
          <mxGeometry x="6" y="10" width="33.5" height="20" as="geometry" />
        </mxCell>
        <mxCell id="8L5EdlblgQnNJxjFwJ6V-34" value="" style="group" vertex="1" connectable="0" parent="1">
          <mxGeometry x="1140" y="-670" width="290" height="120" as="geometry" />
        </mxCell>
        <mxCell id="asZRCC7Di8N7Mpjf7xmQ-27" value="" style="rounded=1;whiteSpace=wrap;html=1;fontSize=25;arcSize=6;sketch=1;fontFamily=Architects Daughter;fontSource=https%3A%2F%2Ffonts.googleapis.com%2Fcss%3Ffamily%3DArchitects%2BDaughter;" parent="8L5EdlblgQnNJxjFwJ6V-34" vertex="1">
          <mxGeometry width="290" height="120" as="geometry" />
        </mxCell>
        <mxCell id="asZRCC7Di8N7Mpjf7xmQ-28" value="&lt;div&gt;&lt;span style=&quot;font-size: 14px; font-family: &amp;quot;Architects Daughter&amp;quot;;&quot;&gt;aks-system-snet&lt;/span&gt;&lt;br&gt;&lt;/div&gt;" style="image;aspect=fixed;html=1;points=[];align=left;fontSize=12;image=img/lib/azure2/networking/Subnet.svg;" parent="8L5EdlblgQnNJxjFwJ6V-34" vertex="1">
          <mxGeometry x="6" y="10" width="33.4" height="20" as="geometry" />
        </mxCell>
        <mxCell id="asZRCC7Di8N7Mpjf7xmQ-14" style="edgeStyle=orthogonalEdgeStyle;rounded=0;orthogonalLoop=1;jettySize=auto;html=1;curved=1;exitX=0.934;exitY=0.595;exitDx=0;exitDy=0;exitPerimeter=0;" parent="1" source="CmNJ5PUrGSjmnbS1ewx_-1" target="8_yD0aAk9DI5srzhzL8p-4" edge="1">
          <mxGeometry relative="1" as="geometry">
            <Array as="points">
              <mxPoint x="1330" y="-1063" />
            </Array>
          </mxGeometry>
        </mxCell>
        <mxCell id="CmNJ5PUrGSjmnbS1ewx_-1" value="&lt;font style=&quot;font-size: 25px&quot;&gt;INTERNET&lt;/font&gt;" style="ellipse;shape=cloud;whiteSpace=wrap;html=1;fillColor=#dae8fc;strokeColor=#6c8ebf;sketch=1;fontFamily=Architects Daughter;fontSource=https%3A%2F%2Ffonts.googleapis.com%2Fcss%3Ffamily%3DArchitects%2BDaughter;fontSize=25;" parent="1" vertex="1">
          <mxGeometry x="1106" y="-1148.02" width="213" height="143" as="geometry" />
        </mxCell>
        <mxCell id="8_yD0aAk9DI5srzhzL8p-1" value="" style="group;sketch=1;fontFamily=Architects Daughter;fontSource=https%3A%2F%2Ffonts.googleapis.com%2Fcss%3Ffamily%3DArchitects%2BDaughter;fontSize=25;" parent="1" vertex="1" connectable="0">
          <mxGeometry x="880" y="-1005.02" width="71.43" height="75.02" as="geometry" />
        </mxCell>
        <mxCell id="8_yD0aAk9DI5srzhzL8p-2" value="" style="shape=image;verticalLabelPosition=bottom;labelBackgroundColor=#ffffff;verticalAlign=top;aspect=fixed;imageAspect=0;image=data:image/svg+xml,PHN2ZyB4bWxuczpkYz0iaHR0cDovL3B1cmwub3JnL2RjL2VsZW1lbnRzLzEuMS8iIHhtbG5zOmNjPSJodHRwOi8vY3JlYXRpdmVjb21tb25zLm9yZy9ucyMiIHhtbG5zOnJkZj0iaHR0cDovL3d3dy53My5vcmcvMTk5OS8wMi8yMi1yZGYtc3ludGF4LW5zIyIgeG1sbnM6c3ZnPSJodHRwOi8vd3d3LnczLm9yZy8yMDAwL3N2ZyIgeG1sbnM9Imh0dHA6Ly93d3cudzMub3JnLzIwMDAvc3ZnIiB4bWxuczpzb2RpcG9kaT0iaHR0cDovL3NvZGlwb2RpLnNvdXJjZWZvcmdlLm5ldC9EVEQvc29kaXBvZGktMC5kdGQiIHhtbG5zOmlua3NjYXBlPSJodHRwOi8vd3d3Lmlua3NjYXBlLm9yZy9uYW1lc3BhY2VzL2lua3NjYXBlIiB2ZXJzaW9uPSIxLjEiIGlkPSJzdmc1MDMyOSIgaW5rc2NhcGU6dmVyc2lvbj0iMC45Mi4zICgyNDA1NTQ2LCAyMDE4LTAzLTExKSIgc29kaXBvZGk6ZG9jbmFtZT0iYXp1cmUuc3ZnIiB4PSIwcHgiIHk9IjBweCIgdmlld0JveD0iMCAwIDYyLjc2IDQ4LjQ4IiBzdHlsZT0iZW5hYmxlLWJhY2tncm91bmQ6bmV3IDAgMCA2Mi43NiA0OC40ODsiIHhtbDpzcGFjZT0icHJlc2VydmUiPjxtZXRhZGF0YSBpZD0ibWV0YWRhdGExNjgwNyI+PHJkZjpSREY+PGNjOldvcmsgcmRmOmFib3V0PSIiPjxkYzpmb3JtYXQ+aW1hZ2Uvc3ZnK3htbDwvZGM6Zm9ybWF0PjxkYzp0eXBlIHJkZjpyZXNvdXJjZT0iaHR0cDovL3B1cmwub3JnL2RjL2RjbWl0eXBlL1N0aWxsSW1hZ2UiLz48ZGM6dGl0bGUvPjwvY2M6V29yaz48L3JkZjpSREY+PC9tZXRhZGF0YT48ZGVmcyBpZD0iZGVmczE2ODA1Ii8+JiN4YTs8c29kaXBvZGk6bmFtZWR2aWV3IGJvcmRlcmNvbG9yPSIjNjY2NjY2IiBib3JkZXJvcGFjaXR5PSIxIiBmaXQtbWFyZ2luLWJvdHRvbT0iMCIgZml0LW1hcmdpbi1sZWZ0PSIwIiBmaXQtbWFyZ2luLXJpZ2h0PSIwIiBmaXQtbWFyZ2luLXRvcD0iMCIgZ3JpZHRvbGVyYW5jZT0iMTAiIGd1aWRldG9sZXJhbmNlPSIxMCIgaWQ9Im5hbWVkdmlldzUwMzMxIiBpbmtzY2FwZTpjdXJyZW50LWxheWVyPSJzdmc1MDMyOSIgaW5rc2NhcGU6Y3g9IjQ5LjM2MTQ4NiIgaW5rc2NhcGU6Y3k9IjEyLjA3MjQ5NyIgaW5rc2NhcGU6cGFnZW9wYWNpdHk9IjAiIGlua3NjYXBlOnBhZ2VzaGFkb3c9IjIiIGlua3NjYXBlOndpbmRvdy1oZWlnaHQ9IjEwMTciIGlua3NjYXBlOndpbmRvdy1tYXhpbWl6ZWQ9IjEiIGlua3NjYXBlOndpbmRvdy13aWR0aD0iMTkyMCIgaW5rc2NhcGU6d2luZG93LXg9Ii04IiBpbmtzY2FwZTp3aW5kb3cteT0iLTgiIGlua3NjYXBlOnpvb209IjUuOTY3MzU3NyIgb2JqZWN0dG9sZXJhbmNlPSIxMCIgcGFnZWNvbG9yPSIjZmZmZmZmIiBzaG93Z3JpZD0iZmFsc2UiPiYjeGE7CTwvc29kaXBvZGk6bmFtZWR2aWV3PiYjeGE7JiN4YTs8cGF0aCBpZD0icGF0aDUwMzI0IiBpbmtzY2FwZTpjb25uZWN0b3ItY3VydmF0dXJlPSIwIiBzdHlsZT0iZmlsbDojMjA3NUI4OyIgZD0iTTE1LjY4LDQ4LjM2YzAuMDctMC4wNyw2LjQtMS4yMywxNC4wNi0yLjU3ICBjNy42NS0xLjM1LDEzLjk3LTIuNSwxNC4wMy0yLjU2YzAuMTItMC4xMS0wLjc1LTEuMTctMTAuMjItMTIuNDZjLTIuNTItMi45OS00LjYzLTUuNTYtNC43LTUuN2MtMC4wOS0wLjE5LDAuODktMy4wNCwzLjczLTEwLjgzICBjMi4xMS01LjgxLDMuODctMTAuNjUsMy45MS0xMC43NWMwLjAzLTAuMDksMC4xMy0wLjE3LDAuMjItMC4xN2MwLjE5LDAsMjYuMTQsNDQuOTEsMjYuMDUsNDUuMDZjLTAuMDQsMC4wNi0xMC42OCwwLjEtMjMuNjQsMC4xICBDMjUuMjEsNDguNDgsMTUuNiw0OC40MywxNS42OCw0OC4zNnogTTAsNDMuMDFjLTAuMDUtMC4xMywwLjU0LTEuMjksMS40NS0yLjg4YzAuODQtMS40Niw0LjQyLTcuNjYsNy45NS0xMy43N2w2LjQxLTExLjFsOS4wOC03LjYzICBDMjkuODgsMy40NCwzNC4wNCwwLDM0LjEzLDBjMC4xLDAsMC4xMywwLjA5LDAuMDgsMC4yNEMzMy43NCwxLjQ4LDE0LjMsNDIuOTIsMTQuMTMsNDMuMDVjLTAuMTksMC4xMy0xLjg0LDAuMTctNy4xNSwwLjE3ICBDMC45MSw0My4yMiwwLjA3LDQzLjE5LDAsNDMuMDF6Ii8+JiN4YTs8L3N2Zz4=;fontFamily=Architects Daughter;sketch=1;fontSource=https%3A%2F%2Ffonts.googleapis.com%2Fcss%3Ffamily%3DArchitects%2BDaughter;fontSize=25;" parent="8_yD0aAk9DI5srzhzL8p-1" vertex="1">
          <mxGeometry width="57.69346153846155" height="43.95692307692308" as="geometry" />
        </mxCell>
        <mxCell id="8_yD0aAk9DI5srzhzL8p-3" value="Payhub" style="text;strokeColor=none;fillColor=none;html=1;fontSize=25;fontStyle=1;verticalAlign=middle;align=center;fontFamily=Architects Daughter;sketch=1;fontSource=https%3A%2F%2Ffonts.googleapis.com%2Fcss%3Ffamily%3DArchitects%2BDaughter;" parent="8_yD0aAk9DI5srzhzL8p-1" vertex="1">
          <mxGeometry y="51.38420919974795" width="71.43" height="23.63579080025204" as="geometry" />
        </mxCell>
        <mxCell id="asZRCC7Di8N7Mpjf7xmQ-16" style="edgeStyle=orthogonalEdgeStyle;rounded=0;orthogonalLoop=1;jettySize=auto;html=1;curved=1;" parent="1" edge="1">
          <mxGeometry relative="1" as="geometry">
            <Array as="points">
              <mxPoint x="954" y="-820" />
              <mxPoint x="954" y="-820" />
            </Array>
            <mxPoint x="954" y="-864.49" as="sourcePoint" />
            <mxPoint x="954" y="-768" as="targetPoint" />
          </mxGeometry>
        </mxCell>
        <mxCell id="8_yD0aAk9DI5srzhzL8p-5" value="&lt;font style=&quot;font-size: 15px;&quot; face=&quot;Architects Daughter&quot;&gt;CDN&lt;/font&gt;" style="image;aspect=fixed;html=1;points=[];align=center;fontSize=12;image=img/lib/azure2/networking/CDN_Profiles.svg;" parent="1" vertex="1">
          <mxGeometry x="918.0000000000001" y="-904.49" width="68" height="40" as="geometry" />
        </mxCell>
        <mxCell id="asZRCC7Di8N7Mpjf7xmQ-13" style="edgeStyle=orthogonalEdgeStyle;rounded=0;orthogonalLoop=1;jettySize=auto;html=1;entryX=0.618;entryY=-0.013;entryDx=0;entryDy=0;entryPerimeter=0;curved=1;" parent="1" source="CmNJ5PUrGSjmnbS1ewx_-1" target="8_yD0aAk9DI5srzhzL8p-5" edge="1">
          <mxGeometry relative="1" as="geometry" />
        </mxCell>
        <mxCell id="asZRCC7Di8N7Mpjf7xmQ-15" value="&lt;font style=&quot;font-size: 15px;&quot; data-font-src=&quot;https://fonts.googleapis.com/css?family=Architects+Daughter&quot; face=&quot;Architects Daughter&quot;&gt;Static Website&lt;br&gt;(SPA)&lt;/font&gt;" style="image;aspect=fixed;html=1;points=[];align=center;fontSize=12;image=img/lib/azure2/storage/Storage_Accounts.svg;" parent="1" vertex="1">
          <mxGeometry x="919.5000000000001" y="-768" width="65" height="52" as="geometry" />
        </mxCell>
        <mxCell id="xoD-UQDEtP1O4TcuraiU-32" style="edgeStyle=orthogonalEdgeStyle;shape=connector;rounded=0;orthogonalLoop=1;jettySize=auto;html=1;strokeColor=default;align=center;verticalAlign=middle;fontFamily=Architects Daughter;fontSource=https%3A%2F%2Ffonts.googleapis.com%2Fcss%3Ffamily%3DArchitects%2BDaughter;fontSize=15;fontColor=default;labelBackgroundColor=default;endArrow=classic;" parent="1" source="asZRCC7Di8N7Mpjf7xmQ-34" target="xoD-UQDEtP1O4TcuraiU-1" edge="1">
          <mxGeometry relative="1" as="geometry">
            <Array as="points">
              <mxPoint x="1286" y="-249" />
              <mxPoint x="1500" y="-249" />
              <mxPoint x="1500" y="-760" />
            </Array>
          </mxGeometry>
        </mxCell>
        <mxCell id="xoD-UQDEtP1O4TcuraiU-33" style="shape=connector;rounded=0;orthogonalLoop=1;jettySize=auto;html=1;strokeColor=default;align=center;verticalAlign=middle;fontFamily=Architects Daughter;fontSource=https%3A%2F%2Ffonts.googleapis.com%2Fcss%3Ffamily%3DArchitects%2BDaughter;fontSize=15;fontColor=default;labelBackgroundColor=default;endArrow=classic;edgeStyle=orthogonalEdgeStyle;" parent="1" source="asZRCC7Di8N7Mpjf7xmQ-34" target="xoD-UQDEtP1O4TcuraiU-2" edge="1">
          <mxGeometry relative="1" as="geometry">
            <Array as="points">
              <mxPoint x="1286" y="-249" />
              <mxPoint x="1500" y="-249" />
              <mxPoint x="1500" y="-630" />
            </Array>
          </mxGeometry>
        </mxCell>
        <mxCell id="xoD-UQDEtP1O4TcuraiU-34" style="edgeStyle=orthogonalEdgeStyle;shape=connector;rounded=0;orthogonalLoop=1;jettySize=auto;html=1;strokeColor=default;align=center;verticalAlign=middle;fontFamily=Architects Daughter;fontSource=https%3A%2F%2Ffonts.googleapis.com%2Fcss%3Ffamily%3DArchitects%2BDaughter;fontSize=15;fontColor=default;labelBackgroundColor=default;endArrow=classic;" parent="1" source="asZRCC7Di8N7Mpjf7xmQ-34" target="xoD-UQDEtP1O4TcuraiU-4" edge="1">
          <mxGeometry relative="1" as="geometry">
            <Array as="points">
              <mxPoint x="1286" y="-249" />
              <mxPoint x="1500" y="-249" />
              <mxPoint x="1500" y="-520" />
            </Array>
          </mxGeometry>
        </mxCell>
        <mxCell id="asZRCC7Di8N7Mpjf7xmQ-34" value="&lt;font style=&quot;font-size: 15px;&quot;&gt;Redis&lt;/font&gt;" style="image;aspect=fixed;html=1;points=[];align=center;fontSize=12;image=img/lib/azure2/databases/Cache_Redis.svg;strokeColor=default;verticalAlign=top;fontFamily=Architects Daughter;fontSource=https%3A%2F%2Ffonts.googleapis.com%2Fcss%3Ffamily%3DArchitects%2BDaughter;fontColor=default;labelBackgroundColor=default;fillColor=default;" parent="1" vertex="1">
          <mxGeometry x="1256" y="-356" width="64" height="52" as="geometry" />
        </mxCell>
        <mxCell id="asZRCC7Di8N7Mpjf7xmQ-36" value="&lt;font style=&quot;font-size: 15px;&quot;&gt;Share&lt;/font&gt;" style="image;aspect=fixed;html=1;points=[];align=center;fontSize=12;image=img/lib/azure2/storage/Data_Shares.svg;strokeColor=default;verticalAlign=top;fontFamily=Architects Daughter;fontSource=https%3A%2F%2Ffonts.googleapis.com%2Fcss%3Ffamily%3DArchitects%2BDaughter;fontColor=default;labelBackgroundColor=default;fillColor=default;" parent="1" vertex="1">
          <mxGeometry x="918" y="-639" width="64" height="55.00000000000001" as="geometry" />
        </mxCell>
        <mxCell id="xoD-UQDEtP1O4TcuraiU-1" value="&lt;font style=&quot;font-size: 15px;&quot;&gt;Application Insight&lt;/font&gt;" style="image;aspect=fixed;html=1;points=[];align=center;fontSize=12;image=img/lib/azure2/devops/Application_Insights.svg;strokeColor=default;verticalAlign=top;fontFamily=Architects Daughter;fontSource=https%3A%2F%2Ffonts.googleapis.com%2Fcss%3Ffamily%3DArchitects%2BDaughter;fontColor=default;labelBackgroundColor=default;fillColor=default;" parent="1" vertex="1">
          <mxGeometry x="1546" y="-779" width="44" height="63" as="geometry" />
        </mxCell>
        <mxCell id="xoD-UQDEtP1O4TcuraiU-2" value="&lt;font style=&quot;font-size: 15px;&quot;&gt;Logs&lt;/font&gt;" style="image;aspect=fixed;html=1;points=[];align=center;fontSize=12;image=img/lib/azure2/analytics/Log_Analytics_Workspaces.svg;strokeColor=default;verticalAlign=top;fontFamily=Architects Daughter;fontSource=https%3A%2F%2Ffonts.googleapis.com%2Fcss%3Ffamily%3DArchitects%2BDaughter;fontColor=default;labelBackgroundColor=default;fillColor=default;" parent="1" vertex="1">
          <mxGeometry x="1546" y="-677" width="64" height="64" as="geometry" />
        </mxCell>
        <mxCell id="xoD-UQDEtP1O4TcuraiU-5" style="edgeStyle=orthogonalEdgeStyle;shape=connector;curved=1;rounded=0;orthogonalLoop=1;jettySize=auto;html=1;strokeColor=default;align=center;verticalAlign=middle;fontFamily=Architects Daughter;fontSource=https%3A%2F%2Ffonts.googleapis.com%2Fcss%3Ffamily%3DArchitects%2BDaughter;fontSize=15;fontColor=default;labelBackgroundColor=default;endArrow=classic;entryX=0.955;entryY=0.302;entryDx=0;entryDy=0;entryPerimeter=0;" parent="1" source="xoD-UQDEtP1O4TcuraiU-3" target="xoD-UQDEtP1O4TcuraiU-1" edge="1">
          <mxGeometry relative="1" as="geometry">
            <Array as="points">
              <mxPoint x="1726" y="-760" />
            </Array>
          </mxGeometry>
        </mxCell>
        <mxCell id="xoD-UQDEtP1O4TcuraiU-6" style="edgeStyle=orthogonalEdgeStyle;shape=connector;curved=1;rounded=0;orthogonalLoop=1;jettySize=auto;html=1;strokeColor=default;align=center;verticalAlign=middle;fontFamily=Architects Daughter;fontSource=https%3A%2F%2Ffonts.googleapis.com%2Fcss%3Ffamily%3DArchitects%2BDaughter;fontSize=15;fontColor=default;labelBackgroundColor=default;endArrow=classic;" parent="1" source="xoD-UQDEtP1O4TcuraiU-3" target="xoD-UQDEtP1O4TcuraiU-2" edge="1">
          <mxGeometry relative="1" as="geometry">
            <Array as="points">
              <mxPoint x="1660" y="-630" />
              <mxPoint x="1660" y="-630" />
            </Array>
          </mxGeometry>
        </mxCell>
        <mxCell id="xoD-UQDEtP1O4TcuraiU-7" style="edgeStyle=orthogonalEdgeStyle;shape=connector;curved=1;rounded=0;orthogonalLoop=1;jettySize=auto;html=1;strokeColor=default;align=center;verticalAlign=middle;fontFamily=Architects Daughter;fontSource=https%3A%2F%2Ffonts.googleapis.com%2Fcss%3Ffamily%3DArchitects%2BDaughter;fontSize=15;fontColor=default;labelBackgroundColor=default;endArrow=classic;" parent="1" source="xoD-UQDEtP1O4TcuraiU-3" target="xoD-UQDEtP1O4TcuraiU-4" edge="1">
          <mxGeometry relative="1" as="geometry">
            <Array as="points">
              <mxPoint x="1730" y="-520" />
            </Array>
          </mxGeometry>
        </mxCell>
        <mxCell id="xoD-UQDEtP1O4TcuraiU-3" value="&lt;font style=&quot;font-size: 15px;&quot;&gt;Workbook&lt;/font&gt;" style="image;aspect=fixed;html=1;points=[];align=center;fontSize=12;image=img/lib/azure2/analytics/Azure_Workbooks.svg;strokeColor=default;verticalAlign=top;fontFamily=Architects Daughter;fontSource=https%3A%2F%2Ffonts.googleapis.com%2Fcss%3Ffamily%3DArchitects%2BDaughter;fontColor=default;labelBackgroundColor=default;fillColor=default;" parent="1" vertex="1">
          <mxGeometry x="1696" y="-664" width="68" height="68" as="geometry" />
        </mxCell>
        <mxCell id="xoD-UQDEtP1O4TcuraiU-4" value="&lt;font style=&quot;font-size: 15px;&quot;&gt;Metrics&lt;/font&gt;" style="image;aspect=fixed;html=1;points=[];align=center;fontSize=15;image=img/lib/azure2/management_governance/Metrics.svg;strokeColor=default;verticalAlign=top;fontFamily=Architects Daughter;fontSource=https%3A%2F%2Ffonts.googleapis.com%2Fcss%3Ffamily%3DArchitects%2BDaughter;fontColor=default;labelBackgroundColor=default;fillColor=default;" parent="1" vertex="1">
          <mxGeometry x="1536" y="-567" width="64" height="68" as="geometry" />
        </mxCell>
        <mxCell id="xoD-UQDEtP1O4TcuraiU-8" style="shape=connector;rounded=0;orthogonalLoop=1;jettySize=auto;html=1;strokeColor=default;align=center;verticalAlign=middle;fontFamily=Architects Daughter;fontSource=https%3A%2F%2Ffonts.googleapis.com%2Fcss%3Ffamily%3DArchitects%2BDaughter;fontSize=15;fontColor=default;labelBackgroundColor=default;endArrow=classic;edgeStyle=orthogonalEdgeStyle;" parent="1" source="asZRCC7Di8N7Mpjf7xmQ-17" target="xoD-UQDEtP1O4TcuraiU-1" edge="1">
          <mxGeometry relative="1" as="geometry">
            <Array as="points">
              <mxPoint x="1456" y="-760" />
              <mxPoint x="1456" y="-760" />
            </Array>
          </mxGeometry>
        </mxCell>
        <mxCell id="xoD-UQDEtP1O4TcuraiU-11" style="shape=connector;rounded=0;orthogonalLoop=1;jettySize=auto;html=1;strokeColor=default;align=center;verticalAlign=middle;fontFamily=Architects Daughter;fontSource=https%3A%2F%2Ffonts.googleapis.com%2Fcss%3Ffamily%3DArchitects%2BDaughter;fontSize=15;fontColor=default;labelBackgroundColor=default;endArrow=classic;edgeStyle=orthogonalEdgeStyle;" parent="1" source="asZRCC7Di8N7Mpjf7xmQ-30" target="xoD-UQDEtP1O4TcuraiU-1" edge="1">
          <mxGeometry relative="1" as="geometry">
            <Array as="points">
              <mxPoint x="1500" y="-610" />
              <mxPoint x="1500" y="-760" />
            </Array>
          </mxGeometry>
        </mxCell>
        <mxCell id="xoD-UQDEtP1O4TcuraiU-12" style="shape=connector;rounded=0;orthogonalLoop=1;jettySize=auto;html=1;strokeColor=default;align=center;verticalAlign=middle;fontFamily=Architects Daughter;fontSource=https%3A%2F%2Ffonts.googleapis.com%2Fcss%3Ffamily%3DArchitects%2BDaughter;fontSize=15;fontColor=default;labelBackgroundColor=default;endArrow=classic;edgeStyle=orthogonalEdgeStyle;" parent="1" source="asZRCC7Di8N7Mpjf7xmQ-30" target="xoD-UQDEtP1O4TcuraiU-2" edge="1">
          <mxGeometry relative="1" as="geometry">
            <Array as="points">
              <mxPoint x="1500" y="-610" />
              <mxPoint x="1500" y="-630" />
            </Array>
          </mxGeometry>
        </mxCell>
        <mxCell id="xoD-UQDEtP1O4TcuraiU-13" style="shape=connector;rounded=0;orthogonalLoop=1;jettySize=auto;html=1;strokeColor=default;align=center;verticalAlign=middle;fontFamily=Architects Daughter;fontSource=https%3A%2F%2Ffonts.googleapis.com%2Fcss%3Ffamily%3DArchitects%2BDaughter;fontSize=15;fontColor=default;labelBackgroundColor=default;endArrow=classic;edgeStyle=orthogonalEdgeStyle;" parent="1" source="asZRCC7Di8N7Mpjf7xmQ-30" target="xoD-UQDEtP1O4TcuraiU-4" edge="1">
          <mxGeometry relative="1" as="geometry">
            <Array as="points">
              <mxPoint x="1500" y="-610" />
              <mxPoint x="1500" y="-520" />
            </Array>
          </mxGeometry>
        </mxCell>
        <mxCell id="xoD-UQDEtP1O4TcuraiU-29" style="edgeStyle=orthogonalEdgeStyle;shape=connector;rounded=0;orthogonalLoop=1;jettySize=auto;html=1;strokeColor=default;align=center;verticalAlign=middle;fontFamily=Architects Daughter;fontSource=https%3A%2F%2Ffonts.googleapis.com%2Fcss%3Ffamily%3DArchitects%2BDaughter;fontSize=15;fontColor=default;labelBackgroundColor=default;endArrow=classic;" parent="1" source="xoD-UQDEtP1O4TcuraiU-14" target="xoD-UQDEtP1O4TcuraiU-1" edge="1">
          <mxGeometry relative="1" as="geometry">
            <Array as="points">
              <mxPoint x="1500" y="-336" />
              <mxPoint x="1500" y="-760" />
            </Array>
          </mxGeometry>
        </mxCell>
        <mxCell id="xoD-UQDEtP1O4TcuraiU-30" style="edgeStyle=orthogonalEdgeStyle;shape=connector;rounded=0;orthogonalLoop=1;jettySize=auto;html=1;strokeColor=default;align=center;verticalAlign=middle;fontFamily=Architects Daughter;fontSource=https%3A%2F%2Ffonts.googleapis.com%2Fcss%3Ffamily%3DArchitects%2BDaughter;fontSize=15;fontColor=default;labelBackgroundColor=default;endArrow=classic;" parent="1" source="xoD-UQDEtP1O4TcuraiU-14" target="xoD-UQDEtP1O4TcuraiU-2" edge="1">
          <mxGeometry relative="1" as="geometry">
            <Array as="points">
              <mxPoint x="1500" y="-336" />
              <mxPoint x="1500" y="-630" />
            </Array>
          </mxGeometry>
        </mxCell>
        <mxCell id="xoD-UQDEtP1O4TcuraiU-31" style="edgeStyle=orthogonalEdgeStyle;shape=connector;rounded=0;orthogonalLoop=1;jettySize=auto;html=1;strokeColor=default;align=center;verticalAlign=middle;fontFamily=Architects Daughter;fontSource=https%3A%2F%2Ffonts.googleapis.com%2Fcss%3Ffamily%3DArchitects%2BDaughter;fontSize=15;fontColor=default;labelBackgroundColor=default;endArrow=classic;" parent="1" source="xoD-UQDEtP1O4TcuraiU-14" target="xoD-UQDEtP1O4TcuraiU-4" edge="1">
          <mxGeometry relative="1" as="geometry">
            <Array as="points">
              <mxPoint x="1500" y="-336" />
              <mxPoint x="1500" y="-520" />
            </Array>
          </mxGeometry>
        </mxCell>
        <mxCell id="xoD-UQDEtP1O4TcuraiU-14" value="&lt;span style=&quot;font-size: 15px;&quot;&gt;CosmosDB/MongoDB&lt;/span&gt;" style="image;aspect=fixed;html=1;points=[];align=center;fontSize=12;image=img/lib/azure2/databases/Azure_Cosmos_DB.svg;strokeColor=default;verticalAlign=top;fontFamily=Architects Daughter;fontSource=https%3A%2F%2Ffonts.googleapis.com%2Fcss%3Ffamily%3DArchitects%2BDaughter;fontColor=default;labelBackgroundColor=default;fillColor=default;" parent="1" vertex="1">
          <mxGeometry x="1376" y="-368" width="64" height="64" as="geometry" />
        </mxCell>
        <mxCell id="xoD-UQDEtP1O4TcuraiU-25" style="shape=connector;rounded=0;orthogonalLoop=1;jettySize=auto;html=1;strokeColor=default;align=center;verticalAlign=middle;fontFamily=Architects Daughter;fontSource=https%3A%2F%2Ffonts.googleapis.com%2Fcss%3Ffamily%3DArchitects%2BDaughter;fontSize=15;fontColor=default;labelBackgroundColor=default;endArrow=classic;edgeStyle=orthogonalEdgeStyle;" parent="1" source="asZRCC7Di8N7Mpjf7xmQ-33" target="xoD-UQDEtP1O4TcuraiU-1" edge="1">
          <mxGeometry relative="1" as="geometry">
            <Array as="points">
              <mxPoint x="1500" y="-478" />
              <mxPoint x="1500" y="-760" />
            </Array>
          </mxGeometry>
        </mxCell>
        <mxCell id="xoD-UQDEtP1O4TcuraiU-26" style="shape=connector;rounded=0;orthogonalLoop=1;jettySize=auto;html=1;strokeColor=default;align=center;verticalAlign=middle;fontFamily=Architects Daughter;fontSource=https%3A%2F%2Ffonts.googleapis.com%2Fcss%3Ffamily%3DArchitects%2BDaughter;fontSize=15;fontColor=default;labelBackgroundColor=default;endArrow=classic;edgeStyle=orthogonalEdgeStyle;" parent="1" source="asZRCC7Di8N7Mpjf7xmQ-33" target="xoD-UQDEtP1O4TcuraiU-2" edge="1">
          <mxGeometry relative="1" as="geometry">
            <Array as="points">
              <mxPoint x="1500" y="-478" />
              <mxPoint x="1500" y="-630" />
            </Array>
          </mxGeometry>
        </mxCell>
        <mxCell id="xoD-UQDEtP1O4TcuraiU-27" style="shape=connector;rounded=0;orthogonalLoop=1;jettySize=auto;html=1;strokeColor=default;align=center;verticalAlign=middle;fontFamily=Architects Daughter;fontSource=https%3A%2F%2Ffonts.googleapis.com%2Fcss%3Ffamily%3DArchitects%2BDaughter;fontSize=15;fontColor=default;labelBackgroundColor=default;endArrow=classic;edgeStyle=orthogonalEdgeStyle;" parent="1" source="asZRCC7Di8N7Mpjf7xmQ-33" target="xoD-UQDEtP1O4TcuraiU-4" edge="1">
          <mxGeometry relative="1" as="geometry">
            <Array as="points">
              <mxPoint x="1500" y="-478" />
              <mxPoint x="1500" y="-520" />
            </Array>
          </mxGeometry>
        </mxCell>
        <mxCell id="xoD-UQDEtP1O4TcuraiU-35" value="" style="rounded=0;whiteSpace=wrap;html=1;strokeColor=default;align=center;verticalAlign=top;fontFamily=Architects Daughter;fontSource=https%3A%2F%2Ffonts.googleapis.com%2Fcss%3Ffamily%3DArchitects%2BDaughter;fontSize=15;fontColor=default;labelBackgroundColor=default;fillColor=default;" parent="1" vertex="1">
          <mxGeometry x="870" y="-210" width="490" height="130" as="geometry" />
        </mxCell>
        <mxCell id="xoD-UQDEtP1O4TcuraiU-36" value="" style="shape=image;verticalLabelPosition=bottom;labelBackgroundColor=default;verticalAlign=top;aspect=fixed;imageAspect=0;image=data:image/svg+xml,PHN2ZyB4bWxucz0iaHR0cDovL3d3dy53My5vcmcvMjAwMC9zdmciIHdpZHRoPSIxMjEiIGhlaWdodD0iMzQiPgogIDxnIGZpbGw9IiMwMEIyQzIiIGZpbGwtcnVsZT0iZXZlbm9kZCI+CiAgICA8cGF0aCBkPSJNMy44MTU2IDIuMzcxdjIuOTY5NmMyLjA1Ny0xLjg0NDggNC43OTI2LTIuOTY5NiA3Ljc5NTMtMi45Njk2IDQuMDUxNyAwIDcuNjE3MiAyLjA0ODIgOS42ODUgNS4xNDk1LTEuMTk1IDEuNzkxOC0xLjg5IDMuOTM1LTEuODkgNi4yMzc5IDAtNC4yMzU2LTMuNDktNy42NjktNy43OTUtNy42NjktNC4zMDUyIDAtNy43OTUzIDMuNDMzNC03Ljc5NTMgNy42NjkgMCA0LjIzNTQgMy40OSA3LjY2ODkgNy43OTUzIDcuNjY4OSA0LjMwNSAwIDcuNzk1LTMuNDMzNSA3Ljc5NS03LjY2OSAwIDIuMzAzLjY5NSA0LjQ0NjEgMS44ODk2IDYuMjM3OC0yLjA2NzQgMy4xMDE0LTUuNjMzIDUuMTQ5NS05LjY4NDYgNS4xNDk1LTMuMDAyNyAwLTUuNzM4My0xLjEyNDgtNy43OTUzLTIuOTY5NnY5LjQ3NjZILjAzNjJWMi4zNzFoMy43Nzk0em0xMTIuNDQxNiAyMi43NzQ2aDMuNzc5VjIuMzcxaC0zLjc3OXYyLjk2OTZjLTIuMDU3LTEuODQ0OC00Ljc5My0yLjk2OTYtNy43OTYtMi45Njk2LTQuMDUxIDAtNy42MTcgMi4wNDgyLTkuNjg0MyA1LjE0OTUgMS4xOTQ2IDEuNzkxOCAxLjg4OTMgMy45MzUgMS44ODkzIDYuMjM3OSAwIDIuMzAyOC0uNjk0NyA0LjQ0Ni0xLjg4OTggNi4yMzc3IDIuMDY3OCAzLjEwMTQgNS42MzM4IDUuMTQ5NSA5LjY4NDggNS4xNDk1IDMuMDAzIDAgNS43MzktMS4xMjQ4IDcuNzk2LTIuOTY5NnYyLjk2OTZ6bS0xNS41OTEtMTEuMzg3MmMwLTQuMjM1NiAzLjQ5LTcuNjY5IDcuNzk1LTcuNjY5czcuNzk2IDMuNDMzNCA3Ljc5NiA3LjY2OWMwIDQuMjM1NC0zLjQ5MSA3LjY2ODktNy43OTYgNy42Njg5cy03Ljc5NS0zLjQzMzUtNy43OTUtNy42Njl6IiBvcGFjaXR5PSIuMyIvPgogICAgPHBhdGggZD0iTTQyLjU1NTUgNS4zNTEzVjIuMzcxSDM4Ljc3NnYyLjk2OTZDMzYuNzE5IDMuNDk1OCAzMy45ODM2IDIuMzcxIDMwLjk4MSAyLjM3MWMtNi4zOTI1IDAtMTEuNTc0NiA1LjA5ODMtMTEuNTc0NiAxMS4zODc0IDAgNi4yODkgNS4xODIgMTEuMzg3MiAxMS41NzQ2IDExLjM4NzIgMy4wMDI2IDAgNS43MzgyLTEuMTI0OCA3Ljc5NTItMi45Njk2bC0uMDAwMSAyLjk2OTZoMy43Nzk1VjIyLjIyMWMtMi4zMjIyLTIuMDg2OS0zLjc3OTUtNS4wOTMxLTMuNzc5NS04LjQzNDkgMC0zLjM0MTcgMS40NTczLTYuMzQ4IDMuNzc5NS04LjQzNDh6bS0xOS4zNjk3IDguNDA3YzAtNC4yMzU1IDMuNDktNy42NjkgNy43OTUtNy42NjkgNC4zMDUyIDAgNy43OTUyIDMuNDMzNSA3Ljc5NTIgNy42NjlzLTMuNDkgNy42NjktNy43OTUxIDcuNjY5Yy00LjMwNTEgMC03Ljc5NTEtMy40MzM1LTcuNzk1MS03LjY2OXpNODEuMjk2IDIuMzcxbC4wMDA0IDIuOTY5MmMyLjA1NjktMS44NDQ1IDQuNzkyNC0yLjk2OTIgNy43OTQ5LTIuOTY5MiA2LjM5MjUgMCAxMS41NzQ4IDUuMDk4MyAxMS41NzQ4IDExLjM4NzQgMCA2LjI4OS01LjE4MjMgMTEuMzg3Mi0xMS41NzQ4IDExLjM4NzItMy4wMDI1IDAtNS43MzgtMS4xMjQ2LTcuNzk1LTIuOTY5bC0uMDAwMyA5LjQ3NmgtMy43Nzk1VjIyLjE3NmMyLjMyMjItMi4wODI1IDMuNzc5NS01LjA4MjYgMy43Nzk1LTguNDE3NiAwIDQuMjM1NCAzLjQ5IDcuNjY4OSA3Ljc5NTMgNy42Njg5IDQuMzA1MiAwIDcuNzk1Mi0zLjQzMzUgNy43OTUyLTcuNjY5cy0zLjQ5LTcuNjY5LTcuNzk1Mi03LjY2OWMtNC4zMDUzIDAtNy43OTUzIDMuNDMzNS03Ljc5NTMgNy42NjkgMC0zLjMzNS0xLjQ1NzMtNi4zMzUxLTMuNzc5NS04LjQxNzdWMi4zNzFoMy43Nzk1eiIgb3BhY2l0eT0iLjYiLz4KICAgIDxwYXRoIGQ9Ik02MS45MjYuMDQ3VjUuMzRsLjE1OS0uMTM5NmMyLjAzOC0xLjc2MTQgNC43MTA0LTIuODI5NSA3LjYzNjMtMi44Mjk1IDYuMzkyNiAwIDExLjU3NDggNS4wOTgzIDExLjU3NDggMTEuMzg3NCAwIDYuMjg5LTUuMTgyMiAxMS4zODczLTExLjU3NDggMTEuMzg3My0zLjAwMjYgMC01LjczODMtMS4xMjQ4LTcuNzk1Mi0yLjk2OTZsLS4wMDAxIDMuMDIwNGMwIDIuOTAwMy0xLjE3OTEgNS42MjYyLTMuMjQ4NCA3LjdsLS4xNTMuMTUwNi0yLjY0Ni0yLjY2MDZjMS40MDYtMS4zNTg3IDIuMjE0Ny0zLjEyMjQgMi4yNjU0LTUuMDAxNmwuMDAyNS0uMTg4NFYyMi4yMjFjLTIuMDU3IDEuODQ4NC00Ljc5MjYgMi45NzU1LTcuNzk1MyAyLjk3NTUtNi4zOTI1IDAtMTEuNTc0OC01LjEwODUtMTEuNTc0OC0xMS40MTA0IDAtNi4zMDE3IDUuMTgyMy0xMS40MTAzIDExLjU3NDgtMTEuNDEwMyAzLjAwMjcgMCA1LjczODQgMS4xMjcgNy43OTU0IDIuOTc1NUw1OC4xNDY1LjA0N2gzLjc3OTV6TTUwLjM1MTIgNi4xMDE1Yy00LjMwNTIgMC03Ljc5NTIgMy40NDA1LTcuNzk1MiA3LjY4NDUgMCA0LjI0NDEgMy40OSA3LjY4NDYgNy43OTUyIDcuNjg0NnM3Ljc5NTMtMy40NDA1IDcuNzk1My03LjY4NDZjMC00LjI0NC0zLjQ5MDEtNy42ODQ1LTcuNzk1My03LjY4NDV6bTExLjU3NDkgNy42NTY4YzAtNC4yMzU1IDMuNDktNy42NjkgNy43OTUyLTcuNjY5czcuNzk1MyAzLjQzMzUgNy43OTUzIDcuNjY5YzAgNC4yMzU0LTMuNDkwMSA3LjY2OS03Ljc5NTMgNy42NjlzLTcuNzk1Mi0zLjQzMzYtNy43OTUyLTcuNjY5eiIvPgogIDwvZz4KPC9zdmc+;" parent="1" vertex="1">
          <mxGeometry x="880" y="-200" width="121" height="34" as="geometry" />
        </mxCell>
        <mxCell id="xoD-UQDEtP1O4TcuraiU-48" value="I" style="group" parent="1" vertex="1" connectable="0">
          <mxGeometry x="1179.4" y="-192" width="64" height="60" as="geometry" />
        </mxCell>
        <mxCell id="xoD-UQDEtP1O4TcuraiU-46" value="IO" style="rounded=1;whiteSpace=wrap;html=1;strokeColor=none;align=center;verticalAlign=top;fontFamily=Architects Daughter;fontSource=https%3A%2F%2Ffonts.googleapis.com%2Fcss%3Ffamily%3DArchitects%2BDaughter;fontSize=15;fontColor=default;labelBackgroundColor=default;fillColor=#0B3EE3;labelPosition=center;verticalLabelPosition=bottom;" parent="xoD-UQDEtP1O4TcuraiU-48" vertex="1">
          <mxGeometry width="64" height="60" as="geometry" />
        </mxCell>
        <mxCell id="xoD-UQDEtP1O4TcuraiU-45" value="" style="shape=image;verticalLabelPosition=bottom;labelBackgroundColor=default;verticalAlign=top;aspect=fixed;imageAspect=0;image=https://selcdcheckoutsa.z6.web.core.windows.net/resources/products/prod-io/logo.svg;fontColor=#FFFFFF;" parent="xoD-UQDEtP1O4TcuraiU-48" vertex="1">
          <mxGeometry x="11.5" y="9.5" width="41" height="41" as="geometry" />
        </mxCell>
        <mxCell id="xoD-UQDEtP1O4TcuraiU-49" value="Nodo dei&#xa;pagamenti" style="group;labelPosition=center;verticalLabelPosition=bottom;align=center;verticalAlign=top;fontFamily=Architects Daughter;fontSource=https%3A%2F%2Ffonts.googleapis.com%2Fcss%3Ffamily%3DArchitects%2BDaughter;fontSize=15;" parent="1" vertex="1" connectable="0">
          <mxGeometry x="1090" y="-196" width="64" height="64" as="geometry" />
        </mxCell>
        <mxCell id="xoD-UQDEtP1O4TcuraiU-41" value="" style="rounded=1;whiteSpace=wrap;html=1;strokeColor=none;align=center;verticalAlign=top;fontFamily=Architects Daughter;fontSource=https%3A%2F%2Ffonts.googleapis.com%2Fcss%3Ffamily%3DArchitects%2BDaughter;fontSize=15;fontColor=default;labelBackgroundColor=default;fillColor=#0066CC;movable=1;resizable=1;rotatable=1;deletable=1;editable=1;locked=0;connectable=1;labelPosition=center;verticalLabelPosition=bottom;" parent="xoD-UQDEtP1O4TcuraiU-49" vertex="1">
          <mxGeometry width="64" height="64" as="geometry" />
        </mxCell>
        <mxCell id="xoD-UQDEtP1O4TcuraiU-40" value="" style="shape=image;verticalLabelPosition=bottom;labelBackgroundColor=default;verticalAlign=top;aspect=fixed;imageAspect=0;image=https://selcdcheckoutsa.z6.web.core.windows.net/resources/products/prod-pagopa/logo.svg;imageBackground=#0066CC;movable=1;resizable=1;rotatable=1;deletable=1;editable=1;locked=0;connectable=1;labelPosition=center;align=center;" parent="xoD-UQDEtP1O4TcuraiU-49" vertex="1">
          <mxGeometry x="5" y="5" width="54" height="54" as="geometry" />
        </mxCell>
        <mxCell id="xoD-UQDEtP1O4TcuraiU-10" style="shape=connector;rounded=0;orthogonalLoop=1;jettySize=auto;html=1;strokeColor=default;align=center;verticalAlign=middle;fontFamily=Architects Daughter;fontSource=https%3A%2F%2Ffonts.googleapis.com%2Fcss%3Ffamily%3DArchitects%2BDaughter;fontSize=15;fontColor=default;labelBackgroundColor=default;endArrow=classic;edgeStyle=orthogonalEdgeStyle;" parent="1" target="xoD-UQDEtP1O4TcuraiU-4" edge="1">
          <mxGeometry relative="1" as="geometry">
            <Array as="points">
              <mxPoint x="1500" y="-760" />
              <mxPoint x="1500" y="-520" />
            </Array>
            <mxPoint x="1364" y="-760" as="sourcePoint" />
            <mxPoint x="1600" y="-533" as="targetPoint" />
          </mxGeometry>
        </mxCell>
        <mxCell id="xoD-UQDEtP1O4TcuraiU-9" style="shape=connector;rounded=0;orthogonalLoop=1;jettySize=auto;html=1;strokeColor=default;align=center;verticalAlign=middle;fontFamily=Architects Daughter;fontSource=https%3A%2F%2Ffonts.googleapis.com%2Fcss%3Ffamily%3DArchitects%2BDaughter;fontSize=15;fontColor=default;labelBackgroundColor=default;endArrow=classic;edgeStyle=orthogonalEdgeStyle;" parent="1" target="xoD-UQDEtP1O4TcuraiU-2" edge="1">
          <mxGeometry relative="1" as="geometry">
            <Array as="points">
              <mxPoint x="1500" y="-760" />
              <mxPoint x="1500" y="-630" />
            </Array>
            <mxPoint x="1364" y="-760" as="sourcePoint" />
            <mxPoint x="1610" y="-645" as="targetPoint" />
          </mxGeometry>
        </mxCell>
        <mxCell id="xoD-UQDEtP1O4TcuraiU-24" style="edgeStyle=orthogonalEdgeStyle;shape=connector;curved=1;rounded=0;orthogonalLoop=1;jettySize=auto;html=1;strokeColor=default;align=center;verticalAlign=middle;fontFamily=Architects Daughter;fontSource=https%3A%2F%2Ffonts.googleapis.com%2Fcss%3Ffamily%3DArchitects%2BDaughter;fontSize=15;fontColor=default;labelBackgroundColor=default;endArrow=classic;" parent="1" source="asZRCC7Di8N7Mpjf7xmQ-30" target="asZRCC7Di8N7Mpjf7xmQ-34" edge="1">
          <mxGeometry relative="1" as="geometry">
            <Array as="points">
              <mxPoint x="1446" y="-590" />
              <mxPoint x="1446" y="-380" />
              <mxPoint x="1288" y="-380" />
            </Array>
          </mxGeometry>
        </mxCell>
        <mxCell id="xoD-UQDEtP1O4TcuraiU-23" style="edgeStyle=orthogonalEdgeStyle;shape=connector;curved=1;rounded=0;orthogonalLoop=1;jettySize=auto;html=1;strokeColor=default;align=center;verticalAlign=middle;fontFamily=Architects Daughter;fontSource=https%3A%2F%2Ffonts.googleapis.com%2Fcss%3Ffamily%3DArchitects%2BDaughter;fontSize=15;fontColor=default;labelBackgroundColor=default;endArrow=classic;" parent="1" source="asZRCC7Di8N7Mpjf7xmQ-30" target="xoD-UQDEtP1O4TcuraiU-14" edge="1">
          <mxGeometry relative="1" as="geometry">
            <Array as="points">
              <mxPoint x="1460" y="-590" />
              <mxPoint x="1460" y="-380" />
              <mxPoint x="1409" y="-380" />
            </Array>
          </mxGeometry>
        </mxCell>
        <mxCell id="xoD-UQDEtP1O4TcuraiU-53" style="edgeStyle=orthogonalEdgeStyle;shape=connector;curved=1;rounded=0;orthogonalLoop=1;jettySize=auto;html=1;strokeColor=default;align=center;verticalAlign=middle;fontFamily=Architects Daughter;fontSource=https%3A%2F%2Ffonts.googleapis.com%2Fcss%3Ffamily%3DArchitects%2BDaughter;fontSize=15;fontColor=default;labelBackgroundColor=default;endArrow=classic;entryX=0.5;entryY=0;entryDx=0;entryDy=0;" parent="1" source="asZRCC7Di8N7Mpjf7xmQ-30" edge="1" target="xoD-UQDEtP1O4TcuraiU-41">
          <mxGeometry relative="1" as="geometry">
            <mxPoint x="1100" y="-200" as="targetPoint" />
            <Array as="points">
              <mxPoint x="1100" y="-614" />
              <mxPoint x="1100" y="-220" />
              <mxPoint x="1122" y="-220" />
            </Array>
          </mxGeometry>
        </mxCell>
        <mxCell id="xoD-UQDEtP1O4TcuraiU-51" style="edgeStyle=orthogonalEdgeStyle;shape=connector;curved=1;rounded=0;orthogonalLoop=1;jettySize=auto;html=1;strokeColor=default;align=center;verticalAlign=middle;fontFamily=Architects Daughter;fontSource=https%3A%2F%2Ffonts.googleapis.com%2Fcss%3Ffamily%3DArchitects%2BDaughter;fontSize=15;fontColor=default;labelBackgroundColor=default;endArrow=classic;" parent="1" source="asZRCC7Di8N7Mpjf7xmQ-30" target="8L5EdlblgQnNJxjFwJ6V-35" edge="1">
          <mxGeometry relative="1" as="geometry" />
        </mxCell>
        <mxCell id="xoD-UQDEtP1O4TcuraiU-21" style="edgeStyle=orthogonalEdgeStyle;shape=connector;curved=1;rounded=0;orthogonalLoop=1;jettySize=auto;html=1;strokeColor=default;align=center;verticalAlign=middle;fontFamily=Architects Daughter;fontSource=https%3A%2F%2Ffonts.googleapis.com%2Fcss%3Ffamily%3DArchitects%2BDaughter;fontSize=15;fontColor=default;labelBackgroundColor=default;endArrow=classic;" parent="1" source="asZRCC7Di8N7Mpjf7xmQ-36" target="asZRCC7Di8N7Mpjf7xmQ-30" edge="1">
          <mxGeometry relative="1" as="geometry">
            <Array as="points">
              <mxPoint x="1139" y="-610" />
              <mxPoint x="1139" y="-590" />
            </Array>
          </mxGeometry>
        </mxCell>
        <mxCell id="xoD-UQDEtP1O4TcuraiU-15" value="" style="group" parent="1" vertex="1" connectable="0">
          <mxGeometry x="1140" y="-530" width="380" height="120" as="geometry" />
        </mxCell>
        <mxCell id="8L5EdlblgQnNJxjFwJ6V-18" value="" style="group" vertex="1" connectable="0" parent="xoD-UQDEtP1O4TcuraiU-15">
          <mxGeometry width="290" height="120" as="geometry" />
        </mxCell>
        <mxCell id="xoD-UQDEtP1O4TcuraiU-17" value="" style="rounded=1;whiteSpace=wrap;html=1;fontSize=25;arcSize=6;sketch=1;fontFamily=Architects Daughter;fontSource=https%3A%2F%2Ffonts.googleapis.com%2Fcss%3Ffamily%3DArchitects%2BDaughter;" parent="8L5EdlblgQnNJxjFwJ6V-18" vertex="1">
          <mxGeometry width="290" height="120" as="geometry" />
        </mxCell>
        <mxCell id="xoD-UQDEtP1O4TcuraiU-18" value="&lt;div&gt;&lt;div&gt;&lt;font face=&quot;Architects Daughter&quot;&gt;&lt;span style=&quot;font-size: 14px;&quot;&gt;postgres-flexible-snet&lt;/span&gt;&lt;/font&gt;&lt;/div&gt;&lt;/div&gt;" style="image;aspect=fixed;html=1;points=[];align=left;fontSize=12;image=img/lib/azure2/networking/Subnet.svg;" parent="8L5EdlblgQnNJxjFwJ6V-18" vertex="1">
          <mxGeometry x="6" y="10" width="33.4" height="20" as="geometry" />
        </mxCell>
        <mxCell id="asZRCC7Di8N7Mpjf7xmQ-33" value="&lt;font style=&quot;font-size: 15px;&quot;&gt;Postgres&lt;/font&gt;" style="image;aspect=fixed;html=1;points=[];align=center;fontSize=12;image=img/lib/azure2/databases/Azure_Database_PostgreSQL_Server.svg;strokeColor=default;verticalAlign=top;fontFamily=Architects Daughter;fontSource=https%3A%2F%2Ffonts.googleapis.com%2Fcss%3Ffamily%3DArchitects%2BDaughter;fontColor=default;labelBackgroundColor=default;fillColor=default;" parent="8L5EdlblgQnNJxjFwJ6V-18" vertex="1">
          <mxGeometry x="166" y="20" width="48" height="64" as="geometry" />
        </mxCell>
        <mxCell id="asZRCC7Di8N7Mpjf7xmQ-2" value="" style="rounded=1;whiteSpace=wrap;html=1;fontSize=25;arcSize=6;sketch=1;fontFamily=Architects Daughter;fontSource=https%3A%2F%2Ffonts.googleapis.com%2Fcss%3Ffamily%3DArchitects%2BDaughter;" parent="1" vertex="1">
          <mxGeometry x="1140" y="-970" width="290" height="120" as="geometry" />
        </mxCell>
        <mxCell id="asZRCC7Di8N7Mpjf7xmQ-9" value="&lt;font face=&quot;Architects Daughter&quot; data-font-src=&quot;https://fonts.googleapis.com/css?family=Architects+Daughter&quot; style=&quot;font-size: 14px;&quot;&gt;appgateway-snet&lt;/font&gt;" style="image;aspect=fixed;html=1;points=[];align=left;fontSize=12;image=img/lib/azure2/networking/Subnet.svg;" parent="1" vertex="1">
          <mxGeometry x="1146" y="-960" width="33.4" height="20" as="geometry" />
        </mxCell>
        <mxCell id="8L5EdlblgQnNJxjFwJ6V-30" style="edgeStyle=orthogonalEdgeStyle;rounded=0;orthogonalLoop=1;jettySize=auto;html=1;" edge="1" parent="1" source="8_yD0aAk9DI5srzhzL8p-4" target="asZRCC7Di8N7Mpjf7xmQ-17">
          <mxGeometry relative="1" as="geometry">
            <Array as="points">
              <mxPoint x="1330" y="-830" />
              <mxPoint x="1330" y="-830" />
            </Array>
          </mxGeometry>
        </mxCell>
        <mxCell id="8_yD0aAk9DI5srzhzL8p-4" value="&lt;span style=&quot;font-size: 15px;&quot;&gt;Application Gateway&lt;/span&gt;" style="image;aspect=fixed;html=1;points=[];align=center;fontSize=12;image=img/lib/azure2/networking/Application_Gateways.svg;labelBackgroundColor=default;imageBackground=none;textShadow=0;strokeColor=default;verticalAlign=top;fontFamily=Architects Daughter;fontSource=https%3A%2F%2Ffonts.googleapis.com%2Fcss%3Ffamily%3DArchitects%2BDaughter;fontColor=default;fillColor=default;" parent="1" vertex="1">
          <mxGeometry x="1298" y="-950" width="64" height="64" as="geometry" />
        </mxCell>
        <mxCell id="asZRCC7Di8N7Mpjf7xmQ-20" value="" style="rounded=1;whiteSpace=wrap;html=1;fontSize=25;arcSize=6;sketch=1;fontFamily=Architects Daughter;fontSource=https%3A%2F%2Ffonts.googleapis.com%2Fcss%3Ffamily%3DArchitects%2BDaughter;" parent="1" vertex="1">
          <mxGeometry x="1140" y="-810" width="290" height="120" as="geometry" />
        </mxCell>
        <mxCell id="asZRCC7Di8N7Mpjf7xmQ-22" value="&lt;font face=&quot;Architects Daughter&quot; data-font-src=&quot;https://fonts.googleapis.com/css?family=Architects+Daughter&quot; style=&quot;font-size: 14px;&quot;&gt;apim-snet&lt;/font&gt;" style="image;aspect=fixed;html=1;points=[];align=left;fontSize=12;image=img/lib/azure2/networking/Subnet.svg;" parent="1" vertex="1">
          <mxGeometry x="1146" y="-800" width="33.4" height="20" as="geometry" />
        </mxCell>
        <mxCell id="8L5EdlblgQnNJxjFwJ6V-31" style="edgeStyle=orthogonalEdgeStyle;rounded=0;orthogonalLoop=1;jettySize=auto;html=1;" edge="1" parent="1" source="asZRCC7Di8N7Mpjf7xmQ-17" target="asZRCC7Di8N7Mpjf7xmQ-30">
          <mxGeometry relative="1" as="geometry" />
        </mxCell>
        <mxCell id="asZRCC7Di8N7Mpjf7xmQ-17" value="&lt;font style=&quot;font-size: 15px;&quot; data-font-src=&quot;https://fonts.googleapis.com/css?family=Architects+Daughter&quot;&gt;API Management&lt;/font&gt;" style="image;aspect=fixed;html=1;points=[];align=center;fontSize=15;image=img/lib/azure2/app_services/API_Management_Services.svg;strokeColor=default;verticalAlign=top;fontFamily=Architects Daughter;fontColor=default;labelBackgroundColor=default;fillColor=default;fontSource=https%3A%2F%2Ffonts.googleapis.com%2Fcss%3Ffamily%3DArchitects%2BDaughter;" parent="1" vertex="1">
          <mxGeometry x="1296" y="-790" width="68" height="63" as="geometry" />
        </mxCell>
        <mxCell id="8L5EdlblgQnNJxjFwJ6V-33" style="edgeStyle=orthogonalEdgeStyle;rounded=0;orthogonalLoop=1;jettySize=auto;html=1;" edge="1" parent="1" source="asZRCC7Di8N7Mpjf7xmQ-30" target="asZRCC7Di8N7Mpjf7xmQ-33">
          <mxGeometry relative="1" as="geometry" />
        </mxCell>
        <mxCell id="8L5EdlblgQnNJxjFwJ6V-38" style="edgeStyle=orthogonalEdgeStyle;rounded=0;orthogonalLoop=1;jettySize=auto;html=1;entryX=0.5;entryY=0;entryDx=0;entryDy=0;curved=1;" edge="1" parent="1" source="asZRCC7Di8N7Mpjf7xmQ-30" target="xoD-UQDEtP1O4TcuraiU-46">
          <mxGeometry relative="1" as="geometry">
            <Array as="points">
              <mxPoint x="1110" y="-614" />
              <mxPoint x="1110" y="-220" />
              <mxPoint x="1211" y="-220" />
            </Array>
          </mxGeometry>
        </mxCell>
        <mxCell id="asZRCC7Di8N7Mpjf7xmQ-30" value="AKS" style="image;aspect=fixed;html=1;points=[];align=center;fontSize=12;image=img/lib/azure2/containers/Kubernetes_Services.svg;strokeColor=default;verticalAlign=top;fontFamily=Architects Daughter;fontSource=https%3A%2F%2Ffonts.googleapis.com%2Fcss%3Ffamily%3DArchitects%2BDaughter;fontColor=default;labelBackgroundColor=default;fillColor=default;" parent="1" vertex="1">
          <mxGeometry x="1296" y="-644" width="68" height="60" as="geometry" />
        </mxCell>
        <mxCell id="8L5EdlblgQnNJxjFwJ6V-35" value="Area&#xa;riservata" style="shape=image;verticalLabelPosition=bottom;labelBackgroundColor=default;verticalAlign=top;aspect=fixed;imageAspect=0;image=data:image/webp,UklGRm4EAABXRUJQVlA4IGIEAAAQGACdASo4ADgAPikKikUhkNDOeBgChLYAZ8wyJQPXPxy5V7Wjtr+33+MzAipn7u/UB+MPQz6WfmH/VP/b/4j1M+sA/rH966w70APKv9i79rv+d6uuaO/0Dsk/uOqAd2N4760fnvyO0wX+Tf4DeCMl2oLFx/ufsA+RLOQ9B+wH/I/63/0eur6F/7AF/rN4+VQOT9HdbvtvMY6+GGqDIzU0zN3i3XS3lHwty0TjO8BLnT8QJu90J/XOUAC9Envn5T82qKPg+OFIZBAA/v6gkEL8hU6x84CErmzHi7dTZi8MrS1mkRDnOHWIw9blnizJMUdcnz8vELt8x9blV/jJvfZvlXUMr95Lcv/U6W9vV0nE3fYzqynz3vmG9yiCJ4peBg9jts/TXoKEkFd6YsXO8kH2/xfLVVtjGMUfWOH5s/2UTaACbsRE/1mWw2dJC8wIAYMeWz2mGl/XSnuPn/A7p4dNj1K2s/68Gf+p5L9NexeFeS9pElp0jCh/3B378jiVytceBgSoFnaLjHj5b4Nb/KTMCLGgcRP+99V/cywDSZEDin1AGJ+tMz2RFXICOr/xqG35S9DSPj0AucShYb35afw+g7Dxk9ff+tgoCzuv9mwo55DnTX1SL9qu0JzDWS2R7puo5hzmT7eUSd7MhW+PsOQpwIof/8Kxh159X8g2ZEYwOSQZdh99chZBGS1hY8Gcg1EtGRaPCAAMNYVQ/CUSpbSd91O2cffvpQ7+9a53EOZhm9PJt+8VC3iERiI8utcPfQLzQ1amnZsCBiejX145eB/azs1GwC4XfpcdgnrArLMVlpsZtiOHnDA+VkBqBwWwn5wf/NAV2T2dNXpVlZdoQPhsBiaKPZK1rpy319bqAt6E4HvP8LBSFtRkiuti0ErSS7MiYFm/ii5L8+TlzsYfgIFemqyE+QEyY4c/Yy8hZh/5U87rYCuojqO114S055hcHn3XvxtRrBf8lVE6lxx73AySTIYio2wbv+ecLtI5pqhmTRoL7EDzaUuufyx+Hlwf/LYKiHva/US2s30gbvVZ3XzYLkUGptGnPmRf05lfrWCdmeyyhYtYVXSHY89ZAImLDlch/fEV4NrKclQF/Rb21oP4W9/MUXQjMuiUnNbswr4dz7FDT74UcntBQO7jjnfBKl8+u8lmCvyfcRZPPJtVM2mEPx7Xoz0HxI6PKd2eMi1R+AnIPkx2exdbsVhw4uNm0TR8HosjDrP/yixcQvnDYUab28e/ajqtMFduIZrjh4241GdcZtO8+RwSRoyuf8y2FQONmi1anA3LMbJZHWDpdxtnk2Ycz3dP1l2P6UV+PubG/kxAzpszUVx6E7aaBYTnoZty1UkrhUdXMxoiVDfJ/7y98PQf3ZgH/QUzlo0m1G+RjdBRdS9/SvABw5J7xJmCSY2arQD35jJ9yxuijjvY1HogdY1cANpIH/LyDzL59K5nda5wU1BMf3CuBhAB9WiPEERHYvbpRAI3eQdIicYAAAAAAAA=;fontFamily=Architects Daughter;fontSource=https%3A%2F%2Ffonts.googleapis.com%2Fcss%3Ffamily%3DArchitects%2BDaughter;fontSize=15;" vertex="1" parent="1">
          <mxGeometry x="1010" y="-188" width="56" height="56" as="geometry" />
        </mxCell>
      </root>
    </mxGraphModel>
  </diagram>
</mxfile>
